<?xml version="1.0" encoding="UTF-8"?>
<svg xmlns="http://www.w3.org/2000/svg" xmlns:xlink="http://www.w3.org/1999/xlink" viewBox="0 0 36 36">
  <defs>
    <linearGradient id="linear-gradient" x1="18" y1="593.371" x2="18" y2="557.426" gradientTransform="translate(0 -557.276)" gradientUnits="userSpaceOnUse">
      <stop offset="0" stop-color="#3d3f58"/>
      <stop offset="1" stop-color="#777e92"/>
    </linearGradient>
  </defs>
  <circle cx="18" cy="18" r="18" fill="url(#linear-gradient)" stroke-width="0"/>
  <path d="M8.634,23.739c0-.628.216-1.158.649-1.595.433-.437.966-.655,1.601-.655.65,0,1.195.218,1.631.655.437.437.655.967.655,1.595,0,.634-.219,1.173-.655,1.619s-.981.669-1.631.669c-.635,0-1.168-.224-1.601-.669-.434-.445-.649-.985-.649-1.619Z" fill="#fff" stroke-width="0"/>
  <path d="M19.872,9.973h2.374l-.224,4.958,4.626-1.719.718,2.213-4.76,1.323,3.076,3.882-1.879,1.359-2.743-4.115-2.747,4.115-1.879-1.359,3.08-3.882-4.76-1.323.716-2.213,4.624,1.719-.224-4.958Z" fill="#fff" stroke-width="0"/>
</svg>